<svg xmlns="http://www.w3.org/2000/svg" xmlns:xlink="http://www.w3.org/1999/xlink" width="500" zoomAndPan="magnify" viewBox="0 0 375 374.999991" height="500" preserveAspectRatio="xMidYMid meet" version="1.0"><defs><g/><clipPath id="aa8a8acc81"><path d="M 51.621094 87.714844 L 91.371094 87.714844 L 91.371094 127.464844 L 51.621094 127.464844 Z M 51.621094 87.714844 " clip-rule="nonzero"/></clipPath><clipPath id="6ee1168dc8"><path d="M 51.621094 167.734375 L 91.371094 167.734375 L 91.371094 207.484375 L 51.621094 207.484375 Z M 51.621094 167.734375 " clip-rule="nonzero"/></clipPath><clipPath id="0c0409a929"><path d="M 51.621094 247.652344 L 91.371094 247.652344 L 91.371094 287.402344 L 51.621094 287.402344 Z M 51.621094 247.652344 " clip-rule="nonzero"/></clipPath><clipPath id="7531953dc7"><path d="M 121 100.945312 L 319 100.945312 L 319 114.445312 L 121 114.445312 Z M 121 100.945312 " clip-rule="nonzero"/></clipPath><clipPath id="f77675bc88"><path d="M 121 180.867188 L 322 180.867188 L 322 194.367188 L 121 194.367188 Z M 121 180.867188 " clip-rule="nonzero"/></clipPath><clipPath id="665ff61a28"><path d="M 121 260.785156 L 322 260.785156 L 322 274.285156 L 121 274.285156 Z M 121 260.785156 " clip-rule="nonzero"/></clipPath></defs><g clip-path="url(#aa8a8acc81)"><path fill="#00aa96" d="M 69.507812 116.335938 L 60.167969 106.992188 L 62.949219 104.210938 L 69.507812 110.769531 L 86.203125 94.074219 C 82.429688 90.296875 77.261719 87.714844 71.496094 87.714844 C 60.566406 87.714844 51.621094 96.660156 51.621094 107.589844 C 51.621094 118.519531 60.566406 127.464844 71.496094 127.464844 C 82.429688 127.464844 91.371094 118.519531 91.371094 107.589844 C 91.371094 103.8125 90.378906 100.433594 88.589844 97.253906 Z M 69.507812 116.335938 " fill-opacity="1" fill-rule="nonzero"/></g><g clip-path="url(#6ee1168dc8)"><path fill="#00aa96" d="M 69.507812 196.351562 L 60.167969 187.011719 L 62.949219 184.230469 L 69.507812 190.789062 L 86.203125 174.09375 C 82.429688 170.316406 77.261719 167.734375 71.496094 167.734375 C 60.566406 167.734375 51.621094 176.675781 51.621094 187.609375 C 51.621094 198.539062 60.566406 207.484375 71.496094 207.484375 C 82.429688 207.484375 91.371094 198.539062 91.371094 187.609375 C 91.371094 183.832031 90.378906 180.453125 88.589844 177.273438 Z M 69.507812 196.351562 " fill-opacity="1" fill-rule="nonzero"/></g><g clip-path="url(#0c0409a929)"><path fill="#00aa96" d="M 69.507812 276.273438 L 60.167969 266.929688 L 62.949219 264.148438 L 69.507812 270.707031 L 86.203125 254.011719 C 82.429688 250.234375 77.261719 247.652344 71.496094 247.652344 C 60.566406 247.652344 51.621094 256.597656 51.621094 267.527344 C 51.621094 278.457031 60.566406 287.402344 71.496094 287.402344 C 82.429688 287.402344 91.371094 278.457031 91.371094 267.527344 C 91.371094 263.75 90.378906 260.371094 88.589844 257.191406 Z M 69.507812 276.273438 " fill-opacity="1" fill-rule="nonzero"/></g><g clip-path="url(#7531953dc7)"><path fill="#5b7caf" d="M 311.695312 100.945312 L 127.625 100.945312 C 123.992188 100.945312 121.050781 103.96875 121.050781 107.695312 C 121.050781 111.425781 123.992188 114.445312 127.625 114.445312 L 311.695312 114.445312 C 315.324219 114.445312 318.269531 111.425781 318.269531 107.695312 C 318.269531 103.96875 315.324219 100.945312 311.695312 100.945312 Z M 311.695312 100.945312 " fill-opacity="1" fill-rule="nonzero"/></g><g clip-path="url(#f77675bc88)"><path fill="#5b7caf" d="M 314.578125 180.867188 L 127.738281 180.867188 C 124.054688 180.867188 121.066406 183.886719 121.066406 187.617188 C 121.066406 191.34375 124.054688 194.367188 127.738281 194.367188 L 314.578125 194.367188 C 318.261719 194.367188 321.25 191.34375 321.25 187.617188 C 321.25 183.886719 318.261719 180.867188 314.578125 180.867188 Z M 314.578125 180.867188 " fill-opacity="1" fill-rule="nonzero"/></g><g clip-path="url(#665ff61a28)"><path fill="#5b7caf" d="M 314.578125 260.785156 L 127.738281 260.785156 C 124.054688 260.785156 121.066406 263.808594 121.066406 267.535156 C 121.066406 271.261719 124.054688 274.285156 127.738281 274.285156 L 314.578125 274.285156 C 318.261719 274.285156 321.25 271.261719 321.25 267.535156 C 321.25 263.808594 318.261719 260.785156 314.578125 260.785156 Z M 314.578125 260.785156 " fill-opacity="1" fill-rule="nonzero"/></g><g fill="#00aa96" fill-opacity="1"><g transform="translate(158.22623, 165.911215)"><g><path d="M 36.453125 -18.484375 C 36.453125 -11.472656 34.476562 -6.585938 30.53125 -3.828125 C 26.894531 -1.273438 21.890625 0 15.515625 0 L 1.078125 0 L 1.078125 -0.96875 L 4.4375 -0.96875 L 4.4375 -34.78125 L 1.078125 -34.78125 L 1.078125 -35.75 L 16.84375 -35.75 C 23.382812 -35.75 28.285156 -34.410156 31.546875 -31.734375 C 34.816406 -29.066406 36.453125 -24.648438 36.453125 -18.484375 Z M 14.40625 -0.96875 L 16.34375 -0.96875 C 19.78125 -0.96875 22.238281 -2.179688 23.71875 -4.609375 C 25.195312 -7.046875 25.9375 -11.125 25.9375 -16.84375 L 25.9375 -19.8125 C 25.9375 -27.46875 24.472656 -32.082031 21.546875 -33.65625 C 20.148438 -34.40625 18.175781 -34.78125 15.625 -34.78125 L 14.40625 -34.78125 Z M 14.40625 -0.96875 "/></g></g></g><g fill="#00aa96" fill-opacity="1"><g transform="translate(196.77443, 165.911215)"><g><path d="M 12.765625 -12 L 14.25 -12 L 14.25 -15.9375 C 14.25 -19.164062 14.066406 -21.332031 13.703125 -22.4375 C 13.347656 -23.539062 12.660156 -24.09375 11.640625 -24.09375 C 11.023438 -24.09375 10.472656 -23.929688 9.984375 -23.609375 C 9.492188 -23.285156 9.25 -22.84375 9.25 -22.28125 C 9.25 -21.726562 9.347656 -21.160156 9.546875 -20.578125 L 10.828125 -20.578125 C 11.097656 -19.859375 11.234375 -19 11.234375 -18 C 11.234375 -17 10.804688 -16.128906 9.953125 -15.390625 C 9.109375 -14.660156 8.035156 -14.296875 6.734375 -14.296875 C 3.804688 -14.296875 2.34375 -15.707031 2.34375 -18.53125 C 2.34375 -22.71875 5.898438 -24.8125 13.015625 -24.8125 C 17.066406 -24.8125 19.867188 -24.125 21.421875 -22.75 C 22.972656 -21.375 23.75 -18.847656 23.75 -15.171875 L 23.75 -4.796875 C 23.75 -3.023438 24.238281 -2.140625 25.21875 -2.140625 C 26.382812 -2.140625 27.066406 -3.894531 27.265625 -7.40625 L 28.03125 -7.359375 C 27.894531 -4.359375 27.332031 -2.296875 26.34375 -1.171875 C 25.363281 -0.046875 23.75 0.515625 21.5 0.515625 C 17.414062 0.515625 15.066406 -0.742188 14.453125 -3.265625 C 14.003906 -1.972656 13.335938 -1.019531 12.453125 -0.40625 C 11.566406 0.207031 10.273438 0.515625 8.578125 0.515625 C 3.535156 0.515625 1.015625 -1.546875 1.015625 -5.671875 C 1.015625 -8.085938 1.976562 -9.742188 3.90625 -10.640625 C 5.832031 -11.546875 8.785156 -12 12.765625 -12 Z M 10.71875 -5.71875 C 10.71875 -3.945312 10.8125 -2.804688 11 -2.296875 C 11.1875 -1.785156 11.546875 -1.53125 12.078125 -1.53125 C 12.609375 -1.53125 13.101562 -1.960938 13.5625 -2.828125 C 14.019531 -3.703125 14.25 -4.90625 14.25 -6.4375 L 14.25 -11.1875 L 13.890625 -11.1875 C 11.773438 -11.1875 10.71875 -9.632812 10.71875 -6.53125 Z M 10.71875 -5.71875 "/></g></g></g><g fill="#00aa96" fill-opacity="1"><g transform="translate(224.804846, 165.911215)"><g><path d="M 8.015625 -27.828125 C 6.210938 -27.828125 4.925781 -28.285156 4.15625 -29.203125 C 3.394531 -30.128906 3.015625 -31.269531 3.015625 -32.625 C 3.015625 -33.988281 3.429688 -35.113281 4.265625 -36 C 5.097656 -36.882812 6.363281 -37.328125 8.0625 -37.328125 C 9.769531 -37.328125 11.066406 -36.925781 11.953125 -36.125 C 12.835938 -35.320312 13.28125 -34.179688 13.28125 -32.703125 C 13.28125 -31.222656 12.851562 -30.039062 12 -29.15625 C 11.144531 -28.269531 9.816406 -27.828125 8.015625 -27.828125 Z M 0.3125 -24.3125 L 12.8125 -24.3125 L 12.8125 -0.921875 L 15.671875 -0.921875 L 15.671875 0 L 0.515625 0 L 0.515625 -0.921875 L 3.3125 -0.921875 L 3.3125 -23.390625 L 0.3125 -23.390625 Z M 0.3125 -24.3125 "/></g></g></g><g fill="#00aa96" fill-opacity="1"><g transform="translate(240.989992, 165.911215)"><g><path d="M 0.3125 -38.296875 L 12.8125 -38.296875 L 12.8125 -0.921875 L 15.671875 -0.921875 L 15.671875 0 L 0.515625 0 L 0.515625 -0.921875 L 3.3125 -0.921875 L 3.3125 -37.375 L 0.3125 -37.375 Z M 0.3125 -38.296875 "/></g></g></g><g fill="#00aa96" fill-opacity="1"><g transform="translate(257.124079, 165.911215)"><g><path d="M 0.25 -23.390625 L 0.25 -24.3125 L 15.0625 -24.3125 L 15.0625 -23.390625 L 12.3125 -23.390625 L 17.875 -6.4375 L 23.796875 -23.390625 L 20.375 -23.390625 L 20.375 -24.3125 L 27.578125 -24.3125 L 27.578125 -23.390625 L 25.015625 -23.390625 L 15.46875 4.140625 C 14.34375 7.335938 13.082031 9.570312 11.6875 10.84375 C 10.289062 12.125 8.585938 12.765625 6.578125 12.765625 C 4.578125 12.765625 3 12.304688 1.84375 11.390625 C 0.6875 10.472656 0.109375 9.296875 0.109375 7.859375 C 0.109375 6.429688 0.476562 5.34375 1.21875 4.59375 C 1.96875 3.84375 2.957031 3.46875 4.1875 3.46875 C 7.007812 3.46875 8.421875 4.644531 8.421875 7 C 8.421875 7.507812 8.320312 8.117188 8.125 8.828125 L 6.328125 8.828125 C 6.054688 9.617188 6.019531 10.269531 6.21875 10.78125 C 6.425781 11.289062 6.890625 11.546875 7.609375 11.546875 C 9.003906 11.546875 10.242188 10.851562 11.328125 9.46875 C 12.421875 8.09375 13.460938 5.992188 14.453125 3.171875 L 15.578125 0 L 11.078125 0 L 2.34375 -23.390625 Z M 0.25 -23.390625 "/></g></g></g><g fill="#00aa96" fill-opacity="1"><g transform="translate(190.364217, 251.005755)"><g><path d="M 29.953125 -15.1875 C 29.953125 -9.425781 28.332031 -5.410156 25.09375 -3.140625 C 22.09375 -1.046875 17.976562 0 12.75 0 L 0.875 0 L 0.875 -0.796875 L 3.65625 -0.796875 L 3.65625 -28.5625 L 0.875 -28.5625 L 0.875 -29.359375 L 13.84375 -29.359375 C 19.21875 -29.359375 23.242188 -28.257812 25.921875 -26.0625 C 28.609375 -23.875 29.953125 -20.25 29.953125 -15.1875 Z M 11.828125 -0.796875 L 13.421875 -0.796875 C 16.242188 -0.796875 18.265625 -1.796875 19.484375 -3.796875 C 20.703125 -5.796875 21.3125 -9.144531 21.3125 -13.84375 L 21.3125 -16.28125 C 21.3125 -22.570312 20.109375 -26.359375 17.703125 -27.640625 C 16.554688 -28.253906 14.9375 -28.5625 12.84375 -28.5625 L 11.828125 -28.5625 Z M 11.828125 -0.796875 "/></g></g></g><g fill="#00aa96" fill-opacity="1"><g transform="translate(222.037979, 251.005755)"><g><path d="M 13.96875 -8.265625 L 13.96875 -11.828125 C 13.96875 -14.546875 13.820312 -16.523438 13.53125 -17.765625 C 13.238281 -19.015625 12.5625 -19.640625 11.5 -19.640625 C 10.882812 -19.640625 10.382812 -19.460938 10 -19.109375 C 9.625 -18.753906 9.351562 -18.175781 9.1875 -17.375 C 8.9375 -16.113281 8.8125 -14.195312 8.8125 -11.625 L 8.8125 -8.34375 C 8.8125 -5.300781 8.898438 -3.472656 9.078125 -2.859375 C 9.265625 -2.242188 9.457031 -1.738281 9.65625 -1.34375 C 9.957031 -0.664062 10.554688 -0.328125 11.453125 -0.328125 C 12.546875 -0.328125 13.257812 -0.957031 13.59375 -2.21875 C 13.84375 -3.113281 13.96875 -5.128906 13.96875 -8.265625 Z M 11.375 0.421875 C 7.875 0.421875 5.226562 -0.472656 3.4375 -2.265625 C 1.644531 -4.054688 0.75 -6.625 0.75 -9.96875 C 0.75 -13.3125 1.707031 -15.882812 3.625 -17.6875 C 5.539062 -19.488281 8.234375 -20.390625 11.703125 -20.390625 C 15.171875 -20.390625 17.757812 -19.554688 19.46875 -17.890625 C 21.175781 -16.222656 22.03125 -13.6875 22.03125 -10.28125 C 22.03125 -3.144531 18.476562 0.421875 11.375 0.421875 Z M 11.375 0.421875 "/></g></g></g></svg>